<?xml version="1.0" encoding="utf-8"?>
<!-- Generator: Adobe Illustrator 23.0.1, SVG Export Plug-In . SVG Version: 6.00 Build 0)  -->
<svg version="1.1" id="Layer_1" xmlns="http://www.w3.org/2000/svg" xmlns:xlink="http://www.w3.org/1999/xlink" x="0px" y="0px"
	 viewBox="0 0 150 69" style="enable-background:new 0 0 150 69;" xml:space="preserve">
<style type="text/css">
	.st0{fill:#223E7E;}
	.st1{fill:#58595B;}
</style>
<title>logo</title>
<path class="st0" d="M110.3,30.8h15v4.3h-20.6V13.7h20.6v4.5h-15V30.8z"/>
<rect x="47" y="13.7" class="st0" width="5.7" height="21.4"/>
<polygon class="st0" points="77.4,13.7 77.4,18.2 84.5,18.2 84.5,35.1 90.2,35.1 90.2,18.2 97.4,18.2 97.4,13.7 "/>
<path class="st0" d="M69.5,22.2h-4.9c-1,0.1-2-0.6-2.2-1.6c0-0.1,0-0.2,0-0.4c-0.1-1,0.7-1.9,1.8-2c0.1,0,0.3,0,0.4,0h10.3v-4.5H64
	c-4.1,0-7.4,2.3-7.4,6.5s3.4,6.5,7.4,6.5h5c1.1,0,2,0.9,2,2s-0.9,2-2,2H57.5v4.5h12c4.1,0,7.4-2.3,7.4-6.5S73.5,22.2,69.5,22.2z"/>
<polygon class="st0" points="29.7,13.7 21.6,33 14,24.4 23.6,13.7 17.1,13.7 8,23.9 8,13.7 2.3,13.7 2.3,35.1 8,35.1 8,24.9 
	17.1,35.1 26.5,35.1 33,19 37.8,30.8 30.2,30.8 32,35.1 45.3,35.1 36.4,13.7 "/>
<polyline class="st0" points="112.1,22.3 122.3,22.3 122.3,26.5 114,26.5 112.1,22.3 "/>
<path class="st0" d="M133,30.8h15v4.3h-20.6V13.7H148v4.5h-15V30.8z"/>
<polyline class="st0" points="134.9,22.3 145.1,22.3 145.1,26.5 136.7,26.5 134.9,22.3 "/>
<g>
	<path class="st1" d="M8.1,42.1c0,3.2-0.9,6.1-4.9,8l-0.7-1c1.9-0.9,3-2.1,3.7-3.4l-3.4,0.3l-0.2-1.1l4-0.3c0.1-0.5,0.2-1.1,0.3-1.7
		H3.2v-1H8.1z M12.5,46.4h-1.6v5.5H9.6V41.1h1.2v4.3h1.6V46.4z"/>
	<path class="st1" d="M20.2,45.7c0,2.4-1.2,3.8-2.8,3.8c-1.6,0-2.8-1.5-2.8-3.8c0-2.3,1.2-3.8,2.8-3.8C19,41.9,20.2,43.3,20.2,45.7z
		 M15.8,45.7c0,1.7,0.7,2.7,1.6,2.7c0.9,0,1.6-1,1.6-2.7c0-1.7-0.7-2.7-1.6-2.7C16.5,43,15.8,44,15.8,45.7z M23.2,41.1v10.9h-1.2
		V41.1H23.2z"/>
	<path class="st1" d="M36.1,49.5v1h-9.8v-1H36.1z M35.2,47.4c-1.8-0.4-3.3-1.5-4-3c-0.7,1.5-2.2,2.6-4,3l-0.5-1
		c2.1-0.4,3.9-2.1,3.9-3.8v-0.8h1.3v0.8c0,1.7,1.7,3.4,3.9,3.8L35.2,47.4z"/>
	<path class="st1" d="M48.2,49.6v1h-9.8v-1H48.2z M47.1,47.8h-7.5v-5.8H47v1h-6.2v1.4h5.9v1h-5.9v1.5h6.2V47.8z"/>
	<path class="st1" d="M57.5,47.5c-1.2-0.4-2.1-1.3-2.5-2.3c-0.5,1.2-1.4,2.1-2.7,2.6l-0.6-1c1.7-0.6,2.7-2,2.7-3.5v-0.4H52v-1h5.8v1
		h-2.3v0.4c0,1.3,0.9,2.7,2.5,3.2L57.5,47.5z M60.9,50.7v1h-7.3v-3.4h1.2v2.4H60.9z M59.4,44v-2.9h1.2V49h-1.2v-4h-2v-1H59.4z"/>
	<path class="st1" d="M69.5,42.2c0,3.2-1.3,6-5,7.8l-0.7-1c2.8-1.4,4.2-3.3,4.4-5.8h-3.9v-1H69.5z M72.7,41.1v10.8h-1.2V41.1H72.7z"
		/>
	<path class="st1" d="M82.1,46.2H77v-4.5h5.1V46.2z M82.4,48.9c0.1,0.9,1.5,1.9,3.5,2.1l-0.4,0.9c-1.7-0.2-3.1-0.9-3.7-1.8
		c-0.7,0.9-2,1.6-3.8,1.8l-0.4-0.9c2-0.2,3.4-1.2,3.5-2.1h-3.1v-0.9h3.1v-1h1.3v1h3.1v0.9H82.4z M80.9,42.7h-2.7v2.5h2.7V42.7z
		 M85.3,47.2h-1.2v-6.2h1.2V47.2z"/>
	<path class="st1" d="M95.3,47.5c-1.2-0.4-2.1-1.3-2.5-2.3c-0.5,1.2-1.4,2.1-2.7,2.6l-0.6-1c1.7-0.6,2.7-2,2.7-3.5v-0.4h-2.3v-1h5.8
		v1h-2.3v0.4c0,1.3,0.9,2.7,2.5,3.2L95.3,47.5z M98.7,50.7v1h-7.3v-3.4h1.2v2.4H98.7z M97.2,44v-2.9h1.2V49h-1.2v-4h-2v-1H97.2z"/>
	<path class="st1" d="M105.6,44.2c0,1.7,1.1,3.6,2.7,4.4l-0.7,1c-1.2-0.6-2.1-1.8-2.6-3.1c-0.5,1.5-1.4,2.8-2.7,3.4l-0.7-1
		c1.7-0.8,2.8-2.8,2.8-4.6v-1H102v-1h5.9v1h-2.3V44.2z M111.9,46.4h-1.7v5.5H109V41.1h1.2v4.3h1.7V46.4z"/>
	<path class="st1" d="M123.7,46v1h-9.8v-1h3.8v-2h1.2v2H123.7z M122.5,49.9c0,1.3-1.5,2-3.8,2c-2.3,0-3.8-0.8-3.8-2
		c0-1.2,1.5-2,3.8-2C121.1,47.9,122.5,48.6,122.5,49.9z M121,45.2c0.3-1.1,0.3-1.8,0.3-2.7H115v-1h7.4v0.9c0,0.9,0,1.8-0.3,2.9
		L121,45.2z M121.3,49.9c0-0.7-1-1.1-2.6-1.1c-1.6,0-2.6,0.4-2.6,1.1c0,0.7,1,1.1,2.6,1.1C120.3,51,121.3,50.6,121.3,49.9z"/>
	<path class="st1" d="M132.2,43.1h-6.4v-1h2.6V41h1.2v1.1h2.6V43.1z M129,47.5c-1.6,0-2.6-0.8-2.6-2c0-1.2,1.1-2,2.6-2
		c1.6,0,2.6,0.8,2.6,2C131.6,46.7,130.5,47.5,129,47.5z M127.1,48.4h7.1v3.5H133v-2.5h-5.9V48.4z M129,46.6c0.9,0,1.5-0.4,1.5-1
		c0-0.6-0.6-1-1.5-1c-0.9,0-1.4,0.4-1.4,1C127.5,46.2,128.1,46.6,129,46.6z M135.8,45h-1.5v2.9H133v-6.8h1.2V44h1.5V45z"/>
	<path class="st1" d="M147.6,48.4h-4.3v3.5h-1.2v-3.5h-4.3v-1h9.8V48.4z M146.4,46.2H139v-4.7h1.2v1.4h5v-1.4h1.2V46.2z M145.2,43.9
		h-5v1.4h5V43.9z"/>
</g>
</svg>
